# xmcd
#
# Track frame offsets: 
#        150
#        17553
#        33920
#        53261
#        66750
#        81853
#        100018
#        114772
#        130821
#        148653
#
# Disc length: 2147 seconds
#
# Revision: 0
# Processed by: cddbd v1.5.2PL0 Copyright (c) Steve Scherf et al.
# Submitted via: ExactAudioCopy v0.99pb4
#
DISCID=7108610a
DTITLE=Kate Russell - Kicking Down The Door
DYEAR=2008
DGENRE=Country
TTITLE0=Mr. Right  
TTITLE1=Our Redneck Neighbor 
TTITLE2=The Man He Could Be 
TTITLE3=Low Percentage 
TTITLE4=Coyote Moon 
TTITLE5=Red Cloud Road 
TTITLE6=Damned If I Do 
TTITLE7=Table 32
TTITLE8=The Cell Phone Song
TTITLE9=Kick Down The Door  
EXTD=
EXTT0=
EXTT1=
EXTT2=
EXTT3=
EXTT4=
EXTT5=
EXTT6=
EXTT7=
EXTT8=
EXTT9=
PLAYORDER=
